<svg width="32" height="12" viewBox="0 0 32 12" fill="none" xmlns="http://www.w3.org/2000/svg">
<path d="M4.49741 11.2563C7.18539 11.2563 8.78207 9.1543 8.78207 5.59473C8.78207 4.25439 8.52573 3.12646 8.035 2.25488C7.32455 0.899902 6.10141 0.16748 4.556 0.16748C2.2562 0.16748 0.630219 1.71289 0.630219 3.88086C0.630219 5.91699 2.09506 7.39648 4.10922 7.39648C5.34702 7.39648 6.35043 6.81787 6.84848 5.81445H6.87045C6.87045 5.81445 6.89975 5.81445 6.90707 5.81445C6.92172 5.81445 6.97299 5.81445 6.97299 5.81445C6.97299 8.23145 6.05746 9.67432 4.51205 9.67432C3.60385 9.67432 2.90073 9.17627 2.65903 8.37793H0.776703C1.09164 10.1138 2.56381 11.2563 4.49741 11.2563ZM4.56332 5.89502C3.3475 5.89502 2.48325 5.03076 2.48325 3.82227C2.48325 2.64307 3.39145 1.74219 4.57065 1.74219C5.74985 1.74219 6.65805 2.65771 6.65805 3.85156C6.65805 5.03076 5.77182 5.89502 4.56332 5.89502ZM11.7666 9.87939C12.4624 9.87939 12.9385 9.38135 12.9385 8.72217C12.9385 8.05566 12.4624 7.56494 11.7666 7.56494C11.0781 7.56494 10.5947 8.05566 10.5947 8.72217C10.5947 9.38135 11.0781 9.87939 11.7666 9.87939ZM11.7666 4.38623C12.4624 4.38623 12.9385 3.89551 12.9385 3.23633C12.9385 2.56982 12.4624 2.0791 11.7666 2.0791C11.0781 2.0791 10.5947 2.56982 10.5947 3.23633C10.5947 3.89551 11.0781 4.38623 11.7666 4.38623ZM14.9636 3.52197V3.55127H16.736V3.52197C16.736 2.44531 17.4831 1.72021 18.589 1.72021C19.6291 1.72021 20.3908 2.39404 20.3908 3.32422C20.3908 4.07129 20.0319 4.62061 18.589 6.08545L15.0661 9.68896V11H22.405V9.396H17.6589V9.27148L19.8708 7.05225C21.6652 5.27979 22.2438 4.34229 22.2438 3.20703C22.2438 1.44189 20.735 0.16748 18.6476 0.16748C16.4797 0.16748 14.9636 1.54443 14.9636 3.52197ZM24.6424 11H26.62L31.139 2.04248V0.431152H23.7855V2.02051H29.2347V2.1377L24.6424 11Z" fill="black"/>
</svg>
