<svg width="8" height="32" viewBox="0 0 8 32" fill="none" xmlns="http://www.w3.org/2000/svg">
<path d="M3.64645 31.3536C3.84171 31.5489 4.15829 31.5489 4.35356 31.3536L7.53554 28.1716C7.7308 27.9764 7.7308 27.6598 7.53554 27.4645C7.34027 27.2693 7.02369 27.2693 6.82843 27.4645L4 30.2929L1.17158 27.4645C0.976313 27.2693 0.659731 27.2693 0.464468 27.4645C0.269206 27.6598 0.269206 27.9764 0.464468 28.1716L3.64645 31.3536ZM3.5 1.0001L3.5 31.0001L4.5 31.0001L4.5 1.0001L3.5 1.0001Z" fill="#27AE60"/>
<path d="M4.35355 0.646443C4.15829 0.451182 3.84171 0.451182 3.64645 0.646443L0.464466 3.82842C0.269203 4.02369 0.269203 4.34027 0.464466 4.53553C0.659728 4.73079 0.97631 4.73079 1.17157 4.53553L4 1.7071L6.82843 4.53553C7.02369 4.73079 7.34027 4.73079 7.53553 4.53553C7.7308 4.34027 7.7308 4.02369 7.53553 3.82842L4.35355 0.646443ZM4.5 31L4.5 0.999996H3.5L3.5 31H4.5Z" fill="#27AE60"/>
</svg>
