<svg width="18" height="12" viewBox="0 0 18 12" fill="none" xmlns="http://www.w3.org/2000/svg">
<path fill-rule="evenodd" clip-rule="evenodd" d="M17.6667 1.66669C17.6667 1.1144 17.219 0.666687 16.6667 0.666687H15.6667C15.1144 0.666687 14.6667 1.1144 14.6667 1.66669V10.3334C14.6667 10.8856 15.1144 11.3334 15.6667 11.3334H16.6667C17.219 11.3334 17.6667 10.8856 17.6667 10.3334V1.66669ZM11 3.00002H12C12.5523 3.00002 13 3.44774 13 4.00002V10.3334C13 10.8856 12.5523 11.3334 12 11.3334H11C10.4477 11.3334 10 10.8856 10 10.3334V4.00002C10 3.44774 10.4477 3.00002 11 3.00002ZM7.33335 5.33335H6.33335C5.78107 5.33335 5.33335 5.78107 5.33335 6.33335V10.3334C5.33335 10.8856 5.78107 11.3334 6.33335 11.3334H7.33335C7.88564 11.3334 8.33335 10.8856 8.33335 10.3334V6.33335C8.33335 5.78107 7.88564 5.33335 7.33335 5.33335ZM3.66669 8.33335C3.66669 7.78107 3.21897 7.33335 2.66669 7.33335H1.66669C1.1144 7.33335 0.666687 7.78107 0.666687 8.33335V10.3334C0.666687 10.8856 1.1144 11.3334 1.66669 11.3334H2.66669C3.21897 11.3334 3.66669 10.8856 3.66669 10.3334V8.33335Z" fill="black"/>
</svg>
